<svg width="77" height="105" viewBox="0 0 77 105" fill="none" xmlns="http://www.w3.org/2000/svg">
<path fill-rule="evenodd" clip-rule="evenodd" d="M15.0157 5.3214L9.56531 10.6679L8.86771 12.9167C8.48409 14.1536 7.7211 16.6826 7.17222 18.5368C6.62335 20.3908 5.99424 22.454 5.77419 23.1215C5.35501 24.3928 5.25589 24.851 5.14978 26.007L5.08547 26.7083L4.93016 25.9261L4.77487 25.1442L4.99271 24.4723C5.20586 23.8149 5.20853 23.7973 5.11573 23.6632C5.0635 23.5877 4.06347 22.1425 2.89339 20.4515C0.151264 16.4888 0.0276649 16.3132 0.000186409 16.3409C-0.0125371 16.3538 0.627699 18.2385 1.42297 20.5291L2.86885 24.6939L5.12669 27.9746L7.38451 31.2555L7.91896 31.6816C9.5202 32.9585 14.4592 36.8203 15.5782 37.6706C16.2919 38.2128 17.2062 38.9288 17.6097 39.2619C18.582 40.064 22.7538 43.578 24.7296 45.2588L26.3043 46.5982L27.4693 48.5349C28.1103 49.5999 28.6346 50.5044 28.6346 50.5449C28.6346 50.5853 28.199 51.7556 27.6667 53.1459C27.1343 54.5359 26.6825 55.7166 26.6626 55.7693C26.6359 55.8399 26.3224 55.3575 25.4789 53.9484C24.8477 52.894 24.2953 52.0203 24.251 52.0068C20.0029 50.7138 4.57744 46.1104 4.57744 46.1104C4.57744 46.1104 5.97093 49.6395 7.72441 53.9334L10.9126 61.7407L12.7877 62.9809L14.6629 64.2211L18.508 63.6301L22.353 63.0392L22.4927 63.1859C22.6833 63.3864 27.4125 68.704 27.5086 68.8259C27.5773 68.9133 27.5608 68.97 27.3524 69.3663L27.1193 69.8091L27.8612 72.8067L28.6033 75.8044L29.8468 76.0669C30.5307 76.2112 31.061 76.3449 31.0252 76.3639C30.9895 76.3828 30.5091 76.4926 29.9578 76.6078L28.9556 76.8171L28.9558 77.1678C28.9558 77.3606 29.0038 78.6106 29.0624 79.9456C29.1485 81.9087 29.1837 82.3838 29.246 82.4305C29.3713 82.5238 33.319 84.5573 33.3749 84.5573C33.4055 84.5573 33.4248 84.2256 33.4227 83.7385L33.4193 82.9198L34.0869 82.4419C34.4541 82.1792 34.7744 81.9442 34.7986 81.9198C34.8228 81.8953 34.6186 81.6871 34.3447 81.4572C34.071 81.2273 33.8407 81.0227 33.8329 81.0027C33.8251 80.9827 33.7615 80.5545 33.6913 80.0514C33.581 79.2598 33.5737 79.1206 33.6378 79.0182C33.7066 78.9083 33.6591 78.8115 32.9642 77.6422L32.2166 76.3842L31.6411 72.6093L31.0654 68.8343L30.4894 68.8073L29.9134 68.7803L29.4915 68.0253L29.0697 67.2701L29.4482 66.5419C29.6564 66.1414 29.8505 65.7829 29.8796 65.7452C29.92 65.693 30.1917 65.6802 31.027 65.6913L32.1217 65.7059L32.3223 66.3531C32.4327 66.7091 32.6066 67.2683 32.7087 67.5956L32.8943 68.1907L32.4657 68.1489C32.23 68.126 32.0333 68.1131 32.0287 68.1201C32.024 68.1273 31.9407 68.2754 31.8436 68.4493C31.6676 68.7647 31.6664 68.7655 31.4555 68.737L31.2439 68.7083L31.2738 68.8792C31.2902 68.9731 31.5462 70.6939 31.8427 72.703L32.3817 76.3559L33.0876 77.515C33.4759 78.1524 33.8085 78.675 33.8267 78.676C33.845 78.6772 33.9432 78.5189 34.0449 78.3244C34.194 78.0396 34.2419 77.9854 34.2916 78.0457C34.3356 78.0994 34.5688 79.4213 34.5688 79.6178C34.5688 79.627 35.0138 79.9191 35.5577 80.267L36.5467 80.8996V81.4064V81.913L36.3462 82.0399C36.236 82.1097 36.0492 82.2226 35.9311 82.2908L35.7164 82.4147L35.4124 82.2184C35.2452 82.1105 35.0731 82.0222 35.0298 82.0222C34.9866 82.0222 34.6487 82.2335 34.2789 82.4916L33.6064 82.9609V83.828V84.6953L34.8589 85.4353C35.5478 85.8425 36.1388 86.1756 36.1724 86.1756C36.2059 86.1756 36.7834 85.8478 37.4555 85.4473L38.6776 84.7191H39.2896H39.9016L41.0968 85.4287C41.7542 85.819 42.3305 86.1485 42.3775 86.1608C42.4246 86.1732 43.1406 85.8032 43.9688 85.3387L45.4745 84.4941V83.6672V82.8403L44.6986 82.2913L43.9226 81.7425L43.406 82.0802C43.122 82.2658 42.8637 82.4176 42.8321 82.4172C42.8006 82.4169 42.6035 82.3045 42.3943 82.1676C41.971 81.8904 41.9454 81.8377 41.9472 81.2469L41.9482 80.9166L42.9418 80.2692C43.4883 79.9132 43.9537 79.5735 43.976 79.5141C43.9981 79.4548 44.0451 79.1635 44.0803 78.8669C44.1455 78.3157 44.2251 77.9768 44.2893 77.977C44.3089 77.977 44.3927 78.0984 44.4752 78.2466C44.5578 78.3949 44.642 78.5156 44.6624 78.5149C44.7123 78.513 45.9529 76.4486 46.0157 76.2628C46.0631 76.123 47.1318 69.0122 47.1318 68.8371C47.1318 68.7712 47.0664 68.7534 46.8244 68.7532L46.517 68.7531L46.3635 68.4566L46.2099 68.1601H45.8181C45.5037 68.1601 45.4146 68.1787 45.3662 68.2544C45.2913 68.3721 45.268 68.4539 45.7435 66.9329L46.1356 65.6789H47.2125H48.2895L48.7237 66.4624L49.1579 67.246L48.7406 67.9862L48.3235 68.7264L47.845 68.7418L47.3665 68.7572L46.7865 72.5418L46.2066 76.3265L45.4905 77.5579L44.7746 78.7892L44.8857 78.9898L44.9969 79.1905L44.8403 80.1047L44.6836 81.0188L44.3707 81.3034C44.1784 81.4782 44.0795 81.604 44.1138 81.6297C44.1447 81.6527 44.4994 81.9107 44.9024 82.2029L45.6349 82.734L45.641 83.0119C45.6442 83.1647 45.6622 83.5121 45.681 83.784L45.7151 84.2781L47.6127 83.2827C48.6563 82.7352 49.5259 82.2701 49.5452 82.2491C49.5779 82.2134 49.806 77.682 49.8052 77.0819L49.8048 76.8072L48.8292 76.6023C48.2926 76.4895 47.8223 76.381 47.7843 76.3611C47.7461 76.3411 48.2169 76.2072 48.8305 76.0636L49.9459 75.8025L50.4172 72.669L50.8884 69.5355L50.5872 68.9868C50.4216 68.685 50.2859 68.4135 50.2859 68.3835C50.2859 68.3534 50.3816 68.2606 50.4987 68.177C50.6583 68.0631 50.7117 67.988 50.7125 67.8757C50.7134 67.7546 51.1767 67.2146 53.1529 65.0304C54.4945 63.5478 55.6072 62.3352 55.6255 62.3357C55.6437 62.3363 57.3763 62.601 59.4755 62.9239L63.2924 63.5111L65.1745 62.2452L67.0567 60.9792L70.2491 53.2104C72.0049 48.9374 73.4332 45.433 73.423 45.4227C73.3858 45.3853 53.6325 51.3299 53.5712 51.397C53.5365 51.435 52.877 52.5297 52.1057 53.8297C51.3344 55.1297 50.6964 56.1856 50.688 56.176C50.6796 56.1665 50.1653 54.8919 49.5452 53.3437L48.4175 50.5286L49.6247 48.5629L50.8318 46.5972L55.2171 42.8827C59.3247 39.4031 59.923 38.9187 64.6741 35.2245L69.746 31.2807L71.9856 28.0168C73.2175 26.2216 74.2493 24.7074 74.2786 24.6518C74.3771 24.4656 77.0272 16.4804 76.9998 16.4528C76.9687 16.4214 76.9577 16.4369 74.0531 20.6304L71.8743 23.7761L72.1193 24.487L72.3643 25.1982L72.1823 25.8993L72.0005 26.6006L71.9956 26.1088C71.9925 25.7937 71.942 25.3989 71.8546 25.0089C71.7502 24.542 69.1793 15.9644 67.7375 11.2724L67.5522 10.6693L63.5033 6.74036C57.1445 0.569913 56.6372 0.0823658 56.6072 0.112628C56.5917 0.128313 56.6031 0.172059 56.6326 0.209877C56.6621 0.247682 58.5451 2.75437 60.8174 5.78031C63.0894 8.80625 64.9693 11.3087 64.9946 11.3413C65.02 11.374 65.7265 14.6023 66.5645 18.5152C67.7545 24.0709 68.1934 26.019 68.568 27.4067C68.8316 28.384 69.039 29.1921 69.0288 29.2024C69.0186 29.2127 68.849 28.9409 68.6519 28.5986C68.4549 28.2561 68.2738 27.976 68.2496 27.976C68.2254 27.976 67.5837 28.6152 66.8237 29.3967L65.4419 30.8175L64.191 31.6111L62.9401 32.4047L62.9794 27.9301L63.0187 23.4554L59.1382 17.0487C57.004 13.5249 55.2577 10.6809 55.2577 10.7286C55.2577 10.7763 56.3088 13.8806 57.5934 17.6272L59.9291 24.4392L59.3028 29.3764C58.9585 32.092 58.6133 34.9676 58.536 35.7667L58.3953 37.2198L58.2093 37.5349C58.107 37.7083 58.0121 37.8388 57.9985 37.8251C57.9849 37.8115 58.0136 37.3711 58.0623 36.8468C58.111 36.3223 58.1371 35.8794 58.1203 35.8624C58.1036 35.8455 58.0239 35.88 57.9435 35.9393C57.863 35.9985 56.3176 37.078 54.5093 38.3384C51.5422 40.4065 51.1503 40.6633 50.4921 40.9703L49.7626 41.3105L49.4392 41.0889C49.2613 40.9669 49.0903 40.8673 49.0593 40.8673C49.0283 40.8673 49.0028 40.9461 49.0027 41.0425C49.0024 41.303 48.8465 43.6321 48.8281 43.6507C48.8193 43.6594 48.7075 42.8972 48.5794 41.9567L48.3467 40.2469L49.3903 36.8219C50.0402 34.689 50.411 33.3914 50.3733 33.3827C50.3399 33.3749 49.9721 33.4745 49.5561 33.6042L48.7994 33.8398L48.8742 33.5914C48.9155 33.4546 49.3189 32.1657 49.7708 30.7268C50.4978 28.4116 50.617 27.9983 50.5321 28.0883C50.4729 28.1509 46.0091 36.2946 46.0091 36.3396C46.0091 36.3687 46.0632 36.3792 46.1294 36.3632C46.5484 36.2612 47.9627 35.9702 47.9757 35.9832C47.9842 35.9918 47.4945 37.416 46.8873 39.1478L45.7833 42.2966L45.7345 43.1038C45.7077 43.5478 45.6977 43.9421 45.7121 43.9803C45.7266 44.0185 45.7212 44.0492 45.7001 44.0488C45.6047 44.0467 45.5361 43.9557 45.5195 43.8091C45.5031 43.6665 45.462 43.6345 45.1271 43.5044C44.9212 43.4244 44.3859 43.2132 43.9375 43.0352C43.4891 42.8569 43.1224 42.7294 43.1224 42.7517C43.1224 42.774 43.3739 43.069 43.6815 43.4075C44.2216 44.0013 44.2603 44.0611 44.798 45.1284L45.355 46.2341L45.0686 46.9083L44.7822 47.5826L44.7797 46.9892C44.7778 46.5222 44.7553 46.3472 44.6741 46.1667C44.6173 46.0407 44.554 45.9375 44.5333 45.9375C44.5128 45.9375 44.3227 46.1255 44.1111 46.3554L43.7263 46.7735L43.3465 46.7557L42.9665 46.7379L42.1316 45.5691C41.3624 44.4923 41.1157 44.192 41.2205 44.4603C41.8588 46.0941 42.6904 48.5265 42.6108 48.5265C42.5993 48.5265 42.5416 48.4311 42.4827 48.3145C42.4237 48.1977 42.3538 48.0888 42.3273 48.0723C42.3008 48.0559 42.1729 48.3758 42.0428 48.7833L41.8064 49.5243L40.6668 50.9402L39.5272 52.3562L38.5849 52.3525L37.6427 52.349L36.4543 50.9154L35.2659 49.4816L35.0392 48.7883C34.9144 48.407 34.7981 48.095 34.7806 48.095C34.7631 48.095 34.7073 48.183 34.6565 48.2905C34.6056 48.398 34.5545 48.4763 34.5429 48.4644C34.4976 48.4187 34.8021 47.4639 35.3397 45.9666C35.8278 44.6069 35.9531 44.19 35.8088 44.4047C35.7883 44.4352 35.4112 44.9771 34.971 45.6092L34.1704 46.7584L33.7413 46.7219L33.3124 46.6853L32.9369 46.3114C32.7305 46.1057 32.5476 45.9375 32.5306 45.9375C32.5138 45.9375 32.4566 46.0344 32.4037 46.153C32.3205 46.339 32.3121 46.4594 32.3417 47.0294C32.361 47.4001 32.3562 47.6549 32.3307 47.6096C32.3057 47.565 32.16 47.2251 32.0069 46.8541L31.7287 46.1796L32.3018 45.1281C32.7603 44.2871 32.9849 43.9417 33.4238 43.4028C33.7256 43.0323 33.9626 42.7188 33.9503 42.7066C33.938 42.6941 33.4106 42.9225 32.7782 43.214C31.8986 43.6194 31.6284 43.7669 31.6284 43.8414C31.6284 43.8972 31.5538 43.9774 31.4546 44.0286C31.2822 44.1176 31.2816 44.1175 31.376 44.0105C31.4639 43.911 31.4666 43.8439 31.4121 43.1267L31.3534 42.3506L30.2538 39.1951C29.649 37.4597 29.1446 36.0134 29.1327 35.9813C29.1203 35.9477 29.5235 36.0134 30.0788 36.1355C30.6111 36.2525 31.0583 36.3363 31.0727 36.3218C31.0871 36.3072 30.1153 34.5145 28.9132 32.3379C27.7111 30.1613 26.6977 28.3238 26.661 28.2545C26.4621 27.878 26.6235 28.4503 27.4334 30.9949C27.9253 32.5406 28.3169 33.8163 28.3037 33.8297C28.2903 33.8431 27.9263 33.7347 27.4947 33.5888C26.9747 33.4131 26.7101 33.3462 26.7101 33.3905C26.7101 33.4275 27.1755 35.0015 27.7442 36.8885L28.7785 40.3193L28.5341 42.0194C28.3998 42.9546 28.2837 43.7136 28.2764 43.7062C28.269 43.6986 28.2371 43.1601 28.2058 42.5091C28.1744 41.8583 28.1363 41.2229 28.1212 41.0973L28.0938 40.8691L27.724 41.057C27.5206 41.1603 27.3256 41.2448 27.2905 41.2448C27.2554 41.2448 26.924 41.107 26.554 40.9384C25.9529 40.6646 25.5161 40.378 22.4405 38.2386C20.548 36.9224 18.9889 35.8562 18.9757 35.8695C18.9625 35.8828 19.0028 36.3477 19.0652 36.9028C19.1277 37.4579 19.1713 37.9195 19.1621 37.9284C19.153 37.9376 19.0437 37.7954 18.9192 37.6127L18.693 37.2803L18.6128 36.0937C18.5575 35.2747 18.319 33.286 17.8433 29.675L17.1539 24.443L19.5303 17.6052C20.8374 13.8444 21.8989 10.7441 21.8894 10.7155C21.8798 10.6869 20.1107 13.5288 17.958 17.0308L14.044 23.3982L14.094 26.6984C14.1214 28.5136 14.1446 30.5374 14.1454 31.1959L14.1469 32.3933L12.7971 31.5059L11.4472 30.6186L10.1962 29.3108C9.50828 28.5914 8.91887 27.9966 8.88648 27.9888C8.85414 27.9809 8.66012 28.2528 8.45532 28.593C8.25052 28.9331 8.07544 29.2038 8.06629 29.1944C8.05716 29.1853 8.31435 28.2055 8.63789 27.0173C9.14485 25.1556 9.42248 23.9444 10.6457 18.2581C11.4264 14.629 12.0852 11.5858 12.1096 11.4958C12.134 11.4057 14.0355 8.78798 16.335 5.67863C18.6345 2.56925 20.5048 0.0139205 20.4911 5.94271e-05C20.4774 -0.0137495 18.0134 2.38078 15.0157 5.3214ZM68.2746 49.9788C68.128 50.125 66.6968 51.4986 65.0944 53.0314L62.1808 55.8183L59.0935 57.3776C57.3955 58.2351 56.0062 58.9274 56.0062 58.9158C56.0062 58.9044 56.7274 58.2616 57.6091 57.4872L59.212 56.0798L59.4521 56.1129C59.8913 56.1736 60.1777 55.9418 60.1748 55.5277C60.1728 55.2101 59.9169 54.9992 59.534 54.9992C59.3604 54.9992 59.2786 55.0333 59.1562 55.1568C59.0258 55.2884 58.9999 55.3585 58.9999 55.5799V55.8454L57.7887 56.8652C57.1225 57.426 56.544 57.9048 56.5034 57.9293C56.4626 57.9536 56.5728 57.7473 56.7481 57.4707C56.9235 57.1941 57.683 55.9848 58.4359 54.7833L59.8051 52.5989L64.1203 51.1611C66.4938 50.3703 68.4594 49.721 68.4885 49.7182C68.5175 49.7154 68.4213 49.8327 68.2746 49.9788ZM16.8027 53.5724L18.2022 54.0321L19.7134 56.444C20.5446 57.7705 21.3079 58.9879 21.4095 59.1493L21.5944 59.4429L21.4301 59.3111C21.3396 59.2386 20.7591 58.7545 20.14 58.2354L19.0142 57.2914L19.0129 57.0312C19.012 56.8161 18.9846 56.7433 18.8556 56.6131C18.7232 56.4797 18.657 56.4555 18.4237 56.4555C18.1905 56.4555 18.1243 56.4797 17.992 56.6131C17.7739 56.833 17.7738 57.139 17.9917 57.385C18.1284 57.5395 18.1795 57.5607 18.406 57.5575C18.5481 57.5554 18.69 57.5433 18.7215 57.5305C18.7634 57.5136 20.9497 59.3754 22.0316 60.3495C22.0606 60.3755 20.6849 59.6982 18.9745 58.8442L15.8646 57.2914L12.9656 54.5136C11.3712 52.9858 9.92023 51.5981 9.74121 51.4298L9.41573 51.1238L12.4095 52.1182C14.0561 52.6651 16.033 53.3194 16.8027 53.5724ZM59.8019 52.8291C59.8019 52.8519 59.9619 52.9127 60.1575 52.9646C60.9028 53.1618 61.4966 53.5603 61.8536 54.1028C61.9592 54.2632 62.1205 54.6215 62.2124 54.8991C62.3042 55.1766 62.3918 55.4158 62.4072 55.4306C62.4227 55.4455 62.4232 55.235 62.4086 54.9628C62.3867 54.5587 62.3517 54.4029 62.2176 54.1137C61.9176 53.4671 61.2832 52.9818 60.5561 52.8428C60.2168 52.7777 59.8019 52.7703 59.8019 52.8291ZM59.8285 53.3662C59.549 53.4063 59.5718 53.4721 59.878 53.5083C60.2737 53.5553 60.6931 53.7195 60.9381 53.9234C61.2501 54.183 61.4476 54.5181 61.6418 55.1167C61.8054 55.6212 61.8234 55.653 61.8576 55.4962C61.878 55.4021 61.8779 55.1849 61.8572 55.0137C61.7509 54.1331 61.2627 53.5443 60.5075 53.3862C60.2227 53.3267 60.1241 53.3237 59.8285 53.3662ZM59.695 53.8783C59.7685 53.9105 59.9609 53.995 60.1225 54.0661C60.7554 54.3441 61.0217 54.6426 61.1418 55.2079C61.2209 55.5794 61.3165 55.5005 61.3165 55.0635C61.3165 54.2929 60.771 53.8073 59.9154 53.8162C59.6125 53.8193 59.5806 53.8283 59.695 53.8783ZM59.695 54.2391C59.5693 54.2804 59.5676 54.2854 59.6682 54.3233C60.0068 54.4506 60.3477 54.6459 60.4417 54.7664C60.5009 54.8424 60.6008 55.0472 60.664 55.2215C60.7269 55.3958 60.7992 55.5385 60.8247 55.5385C60.8502 55.5385 60.8711 55.3742 60.8711 55.1735C60.8711 54.8718 60.8475 54.7735 60.7358 54.6077C60.6615 54.4972 60.5295 54.3698 60.4428 54.3246C60.2482 54.2231 59.8741 54.1804 59.695 54.2391ZM17.4376 54.3013C16.7617 54.4154 16.0491 54.9581 15.7682 55.5728C15.6252 55.8855 15.4963 56.6517 15.56 56.8097C15.5924 56.8901 15.6353 56.8088 15.7472 56.4555C15.9522 55.8083 16.0931 55.56 16.4665 55.1883C16.8308 54.8256 17.2289 54.6033 17.8234 54.4303C18.3804 54.2682 18.13 54.1844 17.4376 54.3013ZM59.5421 54.7235C59.4601 54.776 59.498 54.8071 59.7042 54.8568C59.7827 54.8757 59.9179 54.9513 60.0047 55.025C60.1478 55.1465 60.2047 55.2477 60.3076 55.5639C60.3366 55.653 60.3503 55.6573 60.392 55.591C60.5372 55.3591 60.3882 54.8949 60.1244 54.7572C59.9526 54.6677 59.6564 54.6505 59.5421 54.7235ZM17.4608 54.8559C16.6726 55.0289 16.191 55.6724 16.1371 56.6243C16.1217 56.8983 16.1311 57.1027 16.1591 57.1027C16.1862 57.1027 16.2501 56.9389 16.3012 56.7386C16.4881 56.0079 16.809 55.5141 17.2771 55.2373C17.4012 55.164 17.7039 55.0591 17.9499 55.0041C18.1958 54.9493 18.361 54.891 18.3168 54.8749C18.1261 54.8047 17.7336 54.7961 17.4608 54.8559ZM17.4931 55.3536C16.917 55.5666 16.5951 56.1036 16.6843 56.7031C16.7284 57.0008 16.7956 57.0082 16.8411 56.7207C16.932 56.148 17.3229 55.7175 17.9694 55.4786C18.1457 55.4133 18.3129 55.3394 18.3409 55.3144C18.4259 55.2381 17.7167 55.2709 17.4931 55.3536ZM17.797 55.6987C17.3061 55.8164 17.031 56.2665 17.1129 56.8175C17.1556 57.1048 17.2004 57.0744 17.3294 56.6712C17.4494 56.296 17.7197 56.0161 18.0898 55.8833C18.2441 55.8281 18.3703 55.7673 18.3703 55.7484C18.3703 55.7293 18.2951 55.6986 18.2032 55.6801C18.0172 55.6426 18.0347 55.6417 17.797 55.6987ZM17.9093 56.2093C17.6646 56.3169 17.5684 56.4886 17.5684 56.818C17.5684 57.121 17.6504 57.201 17.7078 56.9544C17.7917 56.5953 17.9791 56.4219 18.449 56.2683C18.5371 56.2395 18.5415 56.2257 18.4757 56.1837C18.3635 56.1121 18.1041 56.1238 17.9093 56.2093ZM38.5806 66.7847C38.9403 68.1196 39.2527 69.2324 39.2749 69.2574C39.2971 69.2824 39.3448 69.1247 39.3809 68.9068C39.417 68.6889 39.5844 67.7098 39.7526 66.7308C40.0205 65.1731 40.0653 64.9743 40.1116 65.1395C40.1407 65.2433 40.3051 65.9304 40.4771 66.6661C40.6489 67.4018 40.8056 67.9723 40.8254 67.9337C40.8452 67.895 40.9032 67.4508 40.9543 66.9465C41.0919 65.5881 41.0713 65.6197 41.3793 66.2954L41.6393 66.8656L41.9932 66.8725C42.1879 66.8764 42.8884 66.8962 43.5499 66.9165L44.7528 66.9537L43.1943 66.9636L41.6357 66.9735L41.4322 66.5359C41.2741 66.196 41.2201 66.1207 41.1904 66.1987C41.1693 66.254 41.0738 66.892 40.9781 67.6165L40.8043 68.9338L40.6593 68.2908C40.5795 67.9371 40.423 67.2374 40.3113 66.7358C40.1736 66.1181 40.0953 65.8571 40.0681 65.9267C40.0461 65.9833 39.8772 66.9701 39.6928 68.1196C39.5084 69.2693 39.3431 70.2097 39.3257 70.2097C39.3083 70.2097 38.9848 69.0143 38.6068 67.5533C38.2288 66.0922 37.901 64.8755 37.8785 64.8494C37.8461 64.8122 37.4801 65.8878 37.1923 66.8656L37.1526 67.0004L35.4999 67.0058C34.4217 67.0093 34.0144 66.9972 34.3282 66.971C34.5927 66.949 35.2062 66.9266 35.6914 66.9212C36.1766 66.9159 36.6796 66.8952 36.8093 66.8751L37.0452 66.8386L37.472 65.5835C37.7067 64.893 37.9051 64.3346 37.9129 64.3429C37.9205 64.3508 38.2211 65.4497 38.5806 66.7847ZM26.795 84.6316C25.1631 87.5036 24.7262 88.3115 24.7677 88.3803C24.7969 88.4285 26.3801 91.2106 28.2858 94.5629C30.1917 97.9152 31.7896 100.699 31.8367 100.748C31.9096 100.825 38.9817 105 39.039 105C39.0503 105 39.0593 104.278 39.0593 103.395V101.789L38.3376 101.063L37.6159 100.336V99.6204V98.9049H37.4822C37.3516 98.9049 37.3486 98.8959 37.3486 98.5004V98.0959H37.6961H38.0436V98.5004C38.0436 98.869 38.0341 98.9049 37.9367 98.9049C37.8356 98.9049 37.8298 98.941 37.8298 99.5666V100.228L38.4445 100.847L39.0593 101.465V99.1333V96.8014H38.922H38.7849L38.9611 96.4777C39.058 96.2997 39.1499 96.1545 39.1652 96.1549C39.1935 96.1556 39.487 96.6715 39.487 96.7205C39.487 96.7354 39.4509 96.7475 39.4068 96.7475C39.3365 96.7475 39.3266 97.0891 39.3266 99.4983C39.3266 101.011 39.3443 102.249 39.3658 102.249C39.3874 102.249 39.6521 102.001 39.9538 101.697L40.5028 101.145V99.5397C40.5028 98.0059 40.498 97.9292 40.3958 97.8261C40.1734 97.6018 40.3529 97.1789 40.6707 97.1789C40.9741 97.1789 41.1464 97.6083 40.9304 97.8261C40.8283 97.9293 40.8235 98.0059 40.8235 99.5665V101.199L40.0751 101.953L39.3266 102.706V103.858C39.3266 104.566 39.3462 105.002 39.3777 104.991C39.4058 104.981 41.0533 104.026 43.039 102.869C46.4322 100.892 46.6492 100.757 46.6499 100.617C46.6504 100.52 47.8524 98.3924 50.1819 94.3667C52.1241 91.0104 53.7006 88.2313 53.6852 88.1908C53.6441 88.0825 49.8566 81.5728 49.7998 81.5126C49.7708 81.4818 49.7513 81.6767 49.7513 82.0001V82.5389L47.2981 83.8278L44.8448 85.1167L44.8161 85.336C44.8003 85.4566 44.7579 85.8828 44.7216 86.2834L44.6558 87.0115L43.1608 87.7016C42.3385 88.0812 41.6507 88.3752 41.6323 88.355C41.6138 88.3348 41.6227 88.3089 41.6521 88.2974C41.6816 88.2861 42.3552 87.9664 43.149 87.5873L44.5925 86.8979L44.6633 85.9924C44.7022 85.4944 44.7231 85.0757 44.7096 85.0621C44.696 85.0484 44.2191 85.3141 43.6497 85.6523C43.0803 85.9907 42.5594 86.2966 42.4922 86.3323C42.3817 86.3909 42.2512 86.3273 41.1236 85.6661L39.8771 84.935H39.2338H38.5905L37.3606 85.6629L36.1305 86.391L35.2112 85.843C34.6595 85.5143 34.2776 85.3175 34.2565 85.3511C34.2351 85.3847 33.1892 84.8728 31.6192 84.0606L29.0171 82.7142L28.985 82.3007C28.9674 82.0734 28.9356 81.6811 28.9141 81.4289L28.8751 80.9705L26.795 84.6316ZM39.6474 86.2295V87.1464H39.2197H38.792V86.2295V85.3125H39.2197H39.6474V86.2295ZM34.2862 85.9463C34.2739 86.0278 34.264 85.9611 34.264 85.7979C34.264 85.6348 34.2739 85.568 34.2862 85.6497C34.2984 85.7312 34.2984 85.8646 34.2862 85.9463ZM34.3402 86.6195C34.3282 86.7165 34.3182 86.6501 34.318 86.4722C34.3177 86.2941 34.3274 86.2148 34.3396 86.2959C34.3519 86.377 34.352 86.5226 34.3402 86.6195ZM36.2648 87.7829L37.3995 88.3236L37.5478 88.2103L37.6961 88.097L37.5666 88.242C37.4953 88.3217 37.411 88.3868 37.3794 88.3864C37.2723 88.3856 34.3863 86.999 34.3665 86.9388C34.3451 86.8742 34.5413 86.9615 36.2648 87.7829ZM39.8612 87.3509C39.8612 87.3743 39.753 87.5008 39.6207 87.6319C39.4883 87.7628 39.3802 87.891 39.3802 87.9165C39.3802 87.9421 39.7734 87.9573 40.2542 87.9501L41.1283 87.9374L41.3501 88.1173C41.6182 88.3346 41.6476 88.4041 41.3866 88.2031L41.2011 88.0605L39.4665 88.0753C38.1713 88.0865 37.7446 88.0747 37.7826 88.0288C37.8117 87.9934 38.1073 87.9505 38.4784 87.9281L39.1235 87.8889L38.8393 87.5985L38.5552 87.3082H39.2082C39.5674 87.3082 39.8612 87.3274 39.8612 87.3509Z" fill="#FCCB00"/>
</svg>
